<svg xmlns="http://www.w3.org/2000/svg" width="64" height="64" viewBox="0 0 64 64"><path d="M54.135 26.675l-9.428-9.428-5.267 5.268.247.248a32.334 32.334 0 0 0-4.156-.41 6.895 6.895 0 0 0-3.47 1.015 6.96 6.96 0 0 0-3.592-1.102 32.327 32.327 0 0 0-4.156.41l.248-.247-5.268-5.268-9.428 9.428 5.268 5.268.624-.624a12.098 12.098 0 0 0 4.419 6.508 2.587 2.587 0 0 0 .152 3.478 2.56 2.56 0 0 0 1.523.726 2.535 2.535 0 0 0 2.252 2.253 2.555 2.555 0 0 0 .727 1.523 2.591 2.591 0 0 0 3.24.341 2.582 2.582 0 0 0 4.06.527l1.383-1.383a2.577 2.577 0 0 0 .556-.835l.084.084a2.59 2.59 0 0 0 4.404-1.513 2.59 2.59 0 0 0 2.09-1.619 2.621 2.621 0 0 0 2.332-.708 2.535 2.535 0 0 0 .626-2.621 12.05 12.05 0 0 0 4.64-6.674l.622.623zm-40.457 1.369a1.666 1.666 0 1 1 2.356 0 1.666 1.666 0 0 1-2.356 0zm8.065 10.923l1.382-1.382a.6.6 0 0 1 .837 0 .573.573 0 0 1 .128.194.6.6 0 0 1-.128.643l-1.383 1.383a.611.611 0 0 1-.837 0 .594.594 0 0 1 0-.838zm2.25 2.252l1.384-1.383.002-.003 1.381-1.38a.592.592 0 0 1 .837.836l-2.767 2.767a.592.592 0 1 1-.837-.837zm2.25 3.087a.582.582 0 0 1-.17-.417.59.59 0 0 1 .171-.42l2.766-2.765a.597.597 0 0 1 .837 0 .589.589 0 0 1 .172.418.598.598 0 0 1-.045.227.572.572 0 0 1-.126.19l-.001.001-.922.923-1.844 1.844a.6.6 0 0 1-.837-.001zm5.855-.514l-1.382 1.382a.599.599 0 0 1-.838 0 .596.596 0 0 1 0-.836l1.383-1.383c.004-.005.011-.007.016-.011a.575.575 0 0 1 .163-.107.592.592 0 0 1 .061-.019.579.579 0 0 1 .359 0 .557.557 0 0 1 .239.136.601.601 0 0 1 0 .838zm9.467-4.59a.613.613 0 0 1-.835 0l-.66-.662v-.001l-2.895-2.894-1.414 1.414 2.893 2.893.001.001a.6.6 0 0 1 0 .837.612.612 0 0 1-.836.001l-2.895-2.894-1.414 1.414 2.894 2.893a.592.592 0 0 1-.837.837l-2.816-2.815-.592.603-.008-.001a2.13 2.13 0 0 0-.151-.023c-.005-.038-.017-.073-.023-.11a2.54 2.54 0 0 0-.036-.177 2.552 2.552 0 0 0-.087-.285c-.02-.056-.04-.11-.063-.164a2.557 2.557 0 0 0-.151-.283c-.026-.043-.048-.087-.077-.129a2.437 2.437 0 0 0-.68-.677c-.042-.028-.086-.05-.13-.075a2.564 2.564 0 0 0-.288-.152c-.053-.023-.107-.042-.16-.062a2.567 2.567 0 0 0-.285-.084 2.535 2.535 0 0 0-.175-.036c-.033-.005-.064-.015-.096-.02-.005-.037-.017-.072-.023-.11a2.536 2.536 0 0 0-.036-.173 2.564 2.564 0 0 0-.087-.287c-.02-.055-.04-.11-.063-.164a2.551 2.551 0 0 0-.15-.28c-.026-.043-.049-.089-.078-.131a2.558 2.558 0 0 0-2.133-1.125h-.001a2.594 2.594 0 0 0-.654.093c-.056.015-.11.032-.165.05a2.544 2.544 0 0 0-.52.237c-.019.012-.042.016-.06.029-.01-.017-.026-.03-.035-.045a2.569 2.569 0 0 0-.368-.474 2.596 2.596 0 0 0-3.665 0l-.126.127a10.203 10.203 0 0 1-3.896-5.583l5.898-5.898a37.814 37.814 0 0 1 4.882-.55 4.474 4.474 0 0 1 1.782.392l-.172.148a2.589 2.589 0 0 0-.357.298l-3.662 3.662a2.595 2.595 0 0 0 0 3.665 2.626 2.626 0 0 0 3.665 0l2.955-2.955 8.886 8.886a.595.595 0 0 1 0 .838zm.851-2.817l-9.736-9.737-4.38 4.382a.595.595 0 0 1-.825-.011.587.587 0 0 1-.13-.196.594.594 0 0 1 .13-.642l3.662-3.661a.565.565 0 0 1 .093-.076l.122-.091c.202-.18.403-.345.602-.5.079-.062.156-.116.234-.174.115-.085.23-.17.342-.246a5.385 5.385 0 0 1 3.002-1.08 37.823 37.823 0 0 1 4.883.552l5.898 5.896a10.207 10.207 0 0 1-3.896 5.585zm5.55-10.612a1.667 1.667 0 1 1 0 2.357 1.667 1.667 0 0 1 0-2.357z" class="a"/></svg>