<svg xmlns="http://www.w3.org/2000/svg" width="64" height="64" viewBox="0 0 64 64"><path d="M45.968 51.31l-4.594-11.228h4.63v-1h-5.039l-3.821-9.34a7.622 7.622 0 0 0-3.14-13.603v-2.712A1.429 1.429 0 0 0 32.579 12h-.073a1.502 1.502 0 0 0-1.5 1.5v2.664A7.625 7.625 0 0 0 27.9 29.659l-3.854 9.423h-5.04v1h4.63l-4.593 11.229a.5.5 0 0 0 .9.43l6.427-11.659h4.636V41.5a1.5 1.5 0 0 0 3 0v-1.418h4.637l6.425 11.66a.5.5 0 0 0 .9-.431zM32.005 13.5a.5.5 0 0 1 .5-.5h.073a.428.428 0 0 1 .427.427V16h-1v-2.5zm.572 6.708a3.428 3.428 0 1 1-3.429 3.428 3.432 3.432 0 0 1 3.429-3.428zM23.244 43.68l5.498-13.439c.04.024.083.04.123.063.11.061.223.116.336.172.122.06.242.123.366.176.142.061.289.112.435.164.092.033.181.074.275.104zm10.76-4.598v-1.583a1.5 1.5 0 0 0-3 0v1.583H26.92l4.368-7.927a7.037 7.037 0 0 0 2.446.02l4.357 7.907h-4.086zm.75-8.125c.019-.005.036-.014.054-.019.15-.046.293-.102.439-.157q.33-.123.648-.278c.112-.054.227-.104.335-.164l.065-.031 5.469 13.367z" class="a"/></svg>