<svg xmlns="http://www.w3.org/2000/svg" width="64" height="64" viewBox="0 0 64 64"><path d="M25.056 28.831h.127v-6.967h-2.63v-1.246h-3.251v1.187h-3.016v-5.974h3.016v1.063h3.25v-.983h6.366s7.368-.683 7.368 7.16c0 0 0-2.407-7.368-2.407v1.2h-.735v6.967h.334a1.775 1.775 0 0 1 1.77 1.77v18.46a1.775 1.775 0 0 1-1.77 1.77h-3.461a1.775 1.775 0 0 1-1.77-1.77v-18.46a1.775 1.775 0 0 1 1.77-1.77zm18.02 13.909a1.777 1.777 0 0 0 1.21-1.679v-18.46a1.775 1.775 0 0 0-1.77-1.77h-3.46a1.775 1.775 0 0 0-1.77 1.77v18.46a1.776 1.776 0 0 0 1.14 1.653 7.008 7.008 0 0 0-4.64 5.617h.951q-.022.28-.022.565a7.51 7.51 0 0 0 5.571 7.144v-7.71h2.429v7.71a7.002 7.002 0 0 0 .361-13.3zm-3.79 2.09h3v2h-3v-2zm0-4v-2.999h3v3h-3zm0-8v-2.999h3v3h-3zm0 4v-2.999h3v3h-3zm-14 2.001v3h3v-3h-3zm0-8v3h3v-3h-3zm0 4v3h3v-3h-3z" class="a"/></svg>